<mxfile host="app.diagrams.net" modified="2023-05-27T14:26:20.029Z" agent="Mozilla/5.0 (Windows NT 10.0; Win64; x64) AppleWebKit/537.36 (KHTML, like Gecko) Chrome/113.0.0.0 Safari/537.36" etag="mEiT69nmjuxK5q2_9p9C" version="21.3.2" type="github">
  <diagram id="R2lEEEUBdFMjLlhIrx00" name="Page-1">
    <mxGraphModel dx="1434" dy="796" grid="1" gridSize="10" guides="1" tooltips="1" connect="1" arrows="1" fold="1" page="1" pageScale="1" pageWidth="850" pageHeight="1100" math="0" shadow="0" extFonts="Permanent Marker^https://fonts.googleapis.com/css?family=Permanent+Marker">
      <root>
        <mxCell id="0" />
        <mxCell id="1" parent="0" />
        <mxCell id="XMxFgJy6SR823VZIkU8j-3" value="" style="rounded=0;whiteSpace=wrap;html=1;" vertex="1" parent="1">
          <mxGeometry x="240" y="250" width="330" height="150" as="geometry" />
        </mxCell>
        <mxCell id="XMxFgJy6SR823VZIkU8j-4" value="" style="rounded=0;whiteSpace=wrap;html=1;" vertex="1" parent="1">
          <mxGeometry x="300" y="270" width="255" height="110" as="geometry" />
        </mxCell>
        <mxCell id="XMxFgJy6SR823VZIkU8j-1" value="" style="rounded=0;whiteSpace=wrap;html=1;" vertex="1" parent="1">
          <mxGeometry x="360" y="287.5" width="180" height="75" as="geometry" />
        </mxCell>
        <mxCell id="XMxFgJy6SR823VZIkU8j-5" value="&lt;font style=&quot;font-size: 15px;&quot;&gt;人工智能&lt;/font&gt;" style="text;html=1;strokeColor=none;fillColor=none;align=center;verticalAlign=middle;whiteSpace=wrap;rounded=0;" vertex="1" parent="1">
          <mxGeometry x="260" y="282.5" width="20" height="80" as="geometry" />
        </mxCell>
        <mxCell id="XMxFgJy6SR823VZIkU8j-6" value="&lt;span style=&quot;font-size: 15px;&quot;&gt;机器学习&lt;/span&gt;" style="text;html=1;strokeColor=none;fillColor=none;align=center;verticalAlign=middle;whiteSpace=wrap;rounded=0;" vertex="1" parent="1">
          <mxGeometry x="310" y="282.5" width="20" height="80" as="geometry" />
        </mxCell>
        <mxCell id="XMxFgJy6SR823VZIkU8j-7" value="&lt;font style=&quot;font-size: 15px;&quot;&gt;深度学习&lt;/font&gt;" style="text;html=1;strokeColor=none;fillColor=none;align=center;verticalAlign=middle;whiteSpace=wrap;rounded=0;" vertex="1" parent="1">
          <mxGeometry x="395" y="303.75" width="95" height="42.5" as="geometry" />
        </mxCell>
      </root>
    </mxGraphModel>
  </diagram>
</mxfile>
